<?xml version="1.0" encoding="UTF-8"?>
<svg id="Layer_2" data-name="Layer 2" xmlns="http://www.w3.org/2000/svg" width="323.43" height="262.79" viewBox="0 0 323.43 262.79">
  <defs>
    <style>
      .cls-1 {
        fill: #fff;
      }
    </style>
  </defs>
  <g id="Layer_2-2" data-name="Layer 2">
    <g>
      <g id="LOGO">
        <path class="cls-1" d="m79.2,189.13h-.17c-22.49-1.01-46.37-7.13-61.93-24.46C1.1,146.85-1.67,121.42.78,98.49c.92-8.59,2.89-17.06,5.88-25.17,2.16-5.85,5.46-17.86,14.04-15.51,4.35,1.2,6.07,5.52,5.45,9.67-1.18,7.77-1.98,15.43-1.98,23.32,0,22.54,9.27,42.89,30.61,52.35,13.8,6.12,28.93,6.15,43.79,6.84,38.27,1.76,76.82.21,115.14.21,19.46,0,22.37,12.31,22.37,19.65,0,8.8-3.88,19.28-22.37,19.28H79.2Z"/>
        <path class="cls-1" d="m48.38,64.12c-.13-2.81.57-5.66,1.33-8.4,6.4-22.94,19.3-41.67,42.38-49.96C114.43-2.26,138.87.45,162.12.39c36.21-.09,72.42-.19,108.64-.28,4.85-.01,10.99.91,12.24,5.59.71,2.65-.6,5.37-1.86,7.8-3.45,6.61-6.89,13.22-10.34,19.83-1.03,1.98-2.18,4.09-4.16,5.13-1.59.84-3.48.86-5.28.86-43.61.02-87.21.04-130.82.06-11.91,0-23.99.03-35.49,3.13-11.5,3.1-22.56,9.69-28.47,20.03-2.63,4.61-5.44,10.68-10.74,10.56-3.57-.08-6.42-3.36-7.18-6.85-.15-.71-.24-1.42-.28-2.14Z"/>
      </g>
      <g id="LOGO-2" data-name="LOGO">
        <path class="cls-1" d="m244.23,73.66h.17c22.49,1.01,46.37,7.13,61.93,24.46s18.77,43.25,16.32,66.19c-.92,8.59-2.89,17.06-5.88,25.17-2.16,5.85-5.46,17.86-14.04,15.51-4.35-1.2-6.07-5.52-5.45-9.67,1.18-7.77,1.98-15.43,1.98-23.32,0-22.54-9.27-42.89-30.61-52.35-13.8-6.12-28.93-6.15-43.79-6.84-38.27-1.76-76.82-.21-115.14-.21-19.46,0-22.37-12.31-22.37-19.65,0-8.8,3.88-19.28,22.37-19.28h134.49Z"/>
        <path class="cls-1" d="m275.04,198.67c.13,2.81-.57,5.66-1.33,8.4-6.4,22.94-19.3,41.67-42.38,49.96-22.34,8.03-46.78,5.31-70.03,5.37l-108.64.28c-4.85.01-10.99-.91-12.24-5.59-.71-2.65.6-5.37,1.86-7.8,3.45-6.61,6.89-13.22,10.34-19.83,1.03-1.98,2.18-4.09,4.16-5.13,1.59-.84,3.48-.86,5.28-.86,43.61-.02,87.21-.04,130.82-.06,11.91,0,23.99-.03,35.49-3.13,11.5-3.1,22.56-9.69,28.47-20.03,2.63-4.61,5.44-10.68,10.74-10.56,3.57.08,6.42,3.36,7.18,6.85.15.71.24,1.42.28,2.14Z"/>
      </g>
    </g>
  </g>
</svg>